<svg xmlns="http://www.w3.org/2000/svg" width="32" height="32" viewBox="0 0 32 32">
  <defs>
    <linearGradient id="bg" x1="0" y1="0" x2="0" y2="1">
      <stop offset="0%" stop-color="#1a1a1a"/>
      <stop offset="100%" stop-color="#0a0a0a"/>
    </linearGradient>
  </defs>
  <!-- Shield shape -->
  <path d="M16 2 L28 7 L28 15 C28 22.5 22.5 28 16 30 C9.5 28 4 22.5 4 15 L4 7 Z" fill="url(#bg)"/>
  <!-- Dollar sign S-curve -->
  <path d="M19 10 C19 8 17.5 7 16 7 C14 7 12 8.5 12 10.5 C12 13 20 14 20 17 C20 19.5 18 21 16 21 C14 21 12.5 19.5 12.5 18" fill="none" stroke="#22c55e" stroke-width="2.5" stroke-linecap="round"/>
  <!-- Dollar sign vertical line -->
  <line x1="16" y1="5.5" x2="16" y2="23" stroke="#34d399" stroke-width="1.5" stroke-linecap="round"/>
</svg>
