<svg xmlns="http://www.w3.org/2000/svg" width="32" height="32" viewBox="0 0 32 32">
  <defs>
    <linearGradient id="bg" x1="0" y1="0" x2="0" y2="1">
      <stop offset="0%" stop-color="#3b82f6"/>
      <stop offset="100%" stop-color="#1d4ed8"/>
    </linearGradient>
  </defs>
  <!-- Shield shape -->
  <path d="M16 2 L28 7 L28 15 C28 22.5 22.5 28 16 30 C9.5 28 4 22.5 4 15 L4 7 Z" fill="url(#bg)"/>
  <!-- Inner shield highlight -->
  <path d="M16 5 L25 9 L25 15 C25 21 20.5 26 16 27.5 C11.5 26 7 21 7 15 L7 9 Z" fill="none" stroke="rgba(255,255,255,0.2)" stroke-width="0.5"/>
  <!-- Lock body -->
  <rect x="12" y="15" width="8" height="7" rx="1.5" fill="rgba(255,255,255,0.9)"/>
  <!-- Lock shackle -->
  <path d="M13.5 15 L13.5 12 C13.5 10 14.5 9 16 9 C17.5 9 18.5 10 18.5 12 L18.5 15" fill="none" stroke="rgba(255,255,255,0.9)" stroke-width="1.8" stroke-linecap="round"/>
  <!-- Keyhole -->
  <circle cx="16" cy="18" r="1.2" fill="#1d4ed8"/>
  <rect x="15.5" y="18.5" width="1" height="2" rx="0.5" fill="#1d4ed8"/>
</svg>
